<svg width="52" height="40" viewBox="0 0 52 40" fill="none" xmlns="http://www.w3.org/2000/svg">
<path d="M6.05721 18.3776C5.93896 17.5577 6.5078 16.7971 7.32775 16.6789L16.7305 15.3229L18.0151 24.2307L8.61238 25.5867C7.79244 25.705 7.03188 25.1361 6.91364 24.3162L6.05721 18.3776Z" fill="#F48635" stroke="white"/>
<path d="M36.678 20.5288L35.8216 14.5903C37.4615 14.3538 38.9826 15.4914 39.2191 17.1313C39.4556 18.7712 38.3179 20.2923 36.678 20.5288Z" fill="#F48635" stroke="white"/>
<path d="M4.71533 19.5813C3.62207 19.739 2.86362 20.753 3.02129 21.8463C3.17895 22.9396 4.19302 23.698 5.28628 23.5403L4.71533 19.5813Z" fill="white"/>
<path d="M18.1437 14.6139L33.0474 2.36114L37.3295 32.054L19.5711 24.5115L18.1437 14.6139Z" fill="white"/>
<path d="M11.7019 25.6463L14.0193 25.3121C14.0193 25.3121 18.5797 36.1949 16.6826 37.8145C16.1777 38.2455 15.8119 38.2421 15.2078 38.0272C12.8602 37.1922 11.7019 25.6463 11.7019 25.6463Z" fill="white"/>
<rect x="39.2539" y="12.6709" width="6" height="1" transform="rotate(-39.2063 39.2539 12.6709)" fill="white"/>
<rect x="40.6978" y="21.415" width="6" height="1" transform="rotate(11.7956 40.6978 21.415)" fill="white"/>
<rect x="42.6689" y="16.6028" width="6" height="1" transform="rotate(-8.20629 42.6689 16.6028)" fill="white"/>
</svg>
