<svg width="85" height="85" viewBox="0 0 85 85" fill="none" xmlns="http://www.w3.org/2000/svg">
<circle cx="42.5" cy="42.5" r="42.5" fill="#FFD6B3"/>
<circle cx="42.5" cy="42.5" r="33.5" fill="#FA8620"/>
<path d="M54.1826 49.3017L49.2569 48.7393C48.6777 48.6713 48.0907 48.7354 47.5398 48.9269C46.989 49.1183 46.4887 49.4321 46.0766 49.8447L42.5084 53.4129C37.0032 50.6131 32.5286 46.1384 29.7288 40.6333L33.3164 37.0457C34.1502 36.2118 34.5575 35.0482 34.4217 33.8653L33.8593 28.9784C33.7494 28.0324 33.2954 27.1598 32.5838 26.5269C31.8722 25.8939 30.9526 25.5448 30.0003 25.5459H26.6454C24.454 25.5459 22.6311 27.3688 22.7669 29.5601C23.7947 46.1213 37.0397 59.347 53.5814 60.3748C55.7728 60.5106 57.5956 58.6877 57.5956 56.4963V53.1414C57.615 51.1828 56.1412 49.5344 54.1826 49.3017V49.3017Z" fill="white"/>
</svg>
