<svg xmlns="http://www.w3.org/2000/svg" width="295" height="7" viewBox="0 0 295 7">
  <g id="Group_2702" data-name="Group 2702" transform="translate(-240 -2407)">
    <circle id="Ellipse_23" data-name="Ellipse 23" cx="3.5" cy="3.5" r="3.5" transform="translate(240 2407)" fill="#e52240"/>
    <circle id="Ellipse_24" data-name="Ellipse 24" cx="3.5" cy="3.5" r="3.5" transform="translate(348 2407)" fill="#f9c21c"/>
    <circle id="Ellipse_25" data-name="Ellipse 25" cx="3.5" cy="3.5" r="3.5" transform="translate(294 2407)" fill="#c62231"/>
    <circle id="Ellipse_26" data-name="Ellipse 26" cx="3.5" cy="3.5" r="3.5" transform="translate(402 2407)" fill="#dc196a"/>
    <circle id="Ellipse_27" data-name="Ellipse 27" cx="3.5" cy="3.5" r="3.5" transform="translate(492 2407)" fill="#63b448"/>
    <circle id="Ellipse_28" data-name="Ellipse 28" cx="3.5" cy="3.5" r="3.5" transform="translate(258 2407)" fill="#e4b631"/>
    <circle id="Ellipse_29" data-name="Ellipse 29" cx="3.5" cy="3.5" r="3.5" transform="translate(366 2407)" fill="#a21e45"/>
    <circle id="Ellipse_30" data-name="Ellipse 30" cx="3.5" cy="3.5" r="3.5" transform="translate(456 2407)" fill="#428147"/>
    <circle id="Ellipse_31" data-name="Ellipse 31" cx="3.5" cy="3.5" r="3.5" transform="translate(312 2407)" fill="#e84430"/>
    <circle id="Ellipse_32" data-name="Ellipse 32" cx="3.5" cy="3.5" r="3.5" transform="translate(420 2407)" fill="#f59c2e"/>
    <circle id="Ellipse_33" data-name="Ellipse 33" cx="3.5" cy="3.5" r="3.5" transform="translate(510 2407)" fill="#116c9e"/>
    <circle id="Ellipse_34" data-name="Ellipse 34" cx="3.5" cy="3.5" r="3.5" transform="translate(276 2407)" fill="#4d9f46"/>
    <circle id="Ellipse_35" data-name="Ellipse 35" cx="3.5" cy="3.5" r="3.5" transform="translate(384 2407)" fill="#ed6e2f"/>
    <circle id="Ellipse_36" data-name="Ellipse 36" cx="3.5" cy="3.5" r="3.5" transform="translate(474 2407)" fill="#2794d2"/>
    <circle id="Ellipse_37" data-name="Ellipse 37" cx="3.5" cy="3.5" r="3.5" transform="translate(330 2407)" fill="#2cbbe1"/>
    <circle id="Ellipse_38" data-name="Ellipse 38" cx="3.5" cy="3.5" r="3.5" transform="translate(438 2407)" fill="#c6982d"/>
    <circle id="Ellipse_39" data-name="Ellipse 39" cx="3.5" cy="3.5" r="3.5" transform="translate(528 2407)" fill="#164a6c"/>
  </g>
</svg>
