<svg width="15" height="10" viewBox="0 0 15 10" fill="none" xmlns="http://www.w3.org/2000/svg">
<path d="M14.2492 0.00438724C14.1853 -0.00146241 14.1209 -0.00146241 14.057 0.00438724H0.932031C0.847911 0.00553887 0.764349 0.0167457 0.683594 0.0377059L7.45703 6.03091L14.2492 0.00438724Z" fill="#6C4744"/>
<path d="M14.9438 0.583008L8.11875 6.62202C7.9431 6.77716 7.70549 6.86424 7.45781 6.86424C7.21014 6.86424 6.97253 6.77716 6.79688 6.62202L0.0328125 0.628821C0.0120185 0.696725 0.000993134 0.766696 0 0.837063V9.16674C0 9.38765 0.0987721 9.59952 0.274587 9.75573C0.450403 9.91194 0.68886 9.9997 0.9375 9.9997H14.0625C14.3111 9.9997 14.5496 9.91194 14.7254 9.75573C14.9012 9.59952 15 9.38765 15 9.16674V0.837063C14.9963 0.750291 14.9773 0.66457 14.9438 0.583008ZM1.57969 9.16674H0.928125V8.57116L4.33594 5.56832L4.99687 6.15556L1.57969 9.16674ZM14.0531 9.16674H13.3969L9.97969 6.15556L10.6406 5.56832L14.0484 8.57116L14.0531 9.16674Z" fill="#6C4744"/>
</svg>
