<svg width="46" height="46" viewBox="0 0 46 46" fill="none" xmlns="http://www.w3.org/2000/svg">
<path d="M22.6734 15.8003C22.9686 15.8003 23.2516 15.683 23.4603 15.4742C23.669 15.2655 23.7862 14.9824 23.7862 14.6871C23.7862 14.3919 23.669 14.1088 23.4603 13.9C23.2516 13.6913 22.9686 13.574 22.6734 13.574C20.9012 13.5704 19.1676 14.0928 17.6923 15.0751C16.2169 16.0574 15.066 17.4555 14.3853 19.0924C13.7046 20.7293 13.5246 22.5314 13.8681 24.2706C14.2117 26.0099 15.0633 27.6081 16.3152 28.8629C17.5671 30.1178 19.1631 30.973 20.901 31.3202C22.639 31.6674 24.4409 31.491 26.0786 30.8134C27.7164 30.1358 29.1163 28.9874 30.1014 27.5136C31.0864 26.0397 31.6121 24.3067 31.6122 22.5339C31.6122 22.2386 31.4949 21.9555 31.2863 21.7467C31.0776 21.538 30.7945 21.4207 30.4994 21.4207C30.3517 21.4183 30.2051 21.4453 30.0679 21.5001C29.9308 21.555 29.806 21.6366 29.7007 21.7402C29.5954 21.8438 29.5118 21.9674 29.4548 22.1036C29.3977 22.2399 29.3683 22.3861 29.3683 22.5339C29.3683 23.8656 28.9736 25.1675 28.2339 26.2748C27.4943 27.3821 26.4429 28.2452 25.2129 28.7549C23.9829 29.2645 22.6295 29.3979 21.3237 29.138C20.0179 28.8782 18.8185 28.2369 17.8771 27.2952C16.9357 26.3535 16.2946 25.1537 16.0349 23.8475C15.7752 22.5413 15.9085 21.1874 16.418 19.957C16.9275 18.7266 17.7902 17.675 18.8972 16.9351C20.0041 16.1952 21.3056 15.8003 22.6369 15.8003" fill="white"/>
<path d="M44.0721 15.8732C43.9826 15.5901 43.7843 15.3541 43.5209 15.2172C43.2574 15.0803 42.9505 15.0537 42.6674 15.1433C42.3844 15.2328 42.1485 15.4311 42.0117 15.6946C41.8748 15.9581 41.8482 16.2652 41.9377 16.5484C43.3004 20.8807 43.1707 25.5451 41.5694 29.795C39.9682 34.0449 36.9879 37.6346 33.1057 39.9895C29.2235 42.3445 24.6637 43.3285 20.1562 42.7841C15.6487 42.2398 11.454 40.1985 8.24353 36.987C5.03308 33.7756 2.99246 29.5795 2.44829 25.0706C1.90412 20.5616 2.88785 16.0003 5.24203 12.1168C7.59621 8.23333 11.1847 5.25213 15.4332 3.65036C19.6817 2.04859 24.3447 1.91887 28.6756 3.28195C28.8112 3.33967 28.957 3.36942 29.1043 3.36942C29.2516 3.36942 29.3974 3.33967 29.533 3.28195C29.6682 3.21858 29.7886 3.12728 29.8861 3.01405C29.9836 2.90083 30.056 2.76824 30.0985 2.62501C30.1426 2.48032 30.1573 2.32826 30.1416 2.17781C30.1259 2.02737 30.0802 1.88159 30.0073 1.7491C29.8596 1.48775 29.6185 1.29213 29.3323 1.20166C25.1401 -0.110666 20.6554 -0.166316 16.4319 1.04158C12.2084 2.24947 8.43089 4.66803 5.56564 7.99875C2.7004 11.3295 0.872786 15.4265 0.308463 19.7843C-0.25586 24.142 0.467797 28.5697 2.39006 32.5208C4.31232 36.4719 7.34908 39.7735 11.1255 42.018C14.9019 44.2626 19.2527 45.3518 23.6409 45.1514C28.0291 44.9509 32.2625 43.4695 35.8187 40.89C39.3749 38.3105 42.0982 34.7458 43.6525 30.636C45.456 25.9038 45.6039 20.7002 44.0721 15.8732Z" fill="white"/>
<path d="M24.8087 8.11786C24.8188 7.80927 24.7082 7.50892 24.5004 7.28062C24.2926 7.05232 24.004 6.91406 23.6959 6.89523C23.3557 6.87705 23.0146 6.87705 22.6744 6.89523C19.5671 6.89523 16.5297 7.81717 13.9463 9.5444C11.363 11.2716 9.34986 13.7265 8.1616 16.5985C6.97335 19.4705 6.6634 22.6306 7.27092 25.6788C7.87845 28.7271 9.37614 31.5266 11.5746 33.7232C13.773 35.9198 16.5734 37.4147 19.6214 38.0189C22.6694 38.6231 25.828 38.3093 28.6976 37.1174C31.5673 35.9254 34.0191 33.9087 35.7428 31.3226C37.4665 28.7364 38.3846 25.6969 38.3809 22.5887C38.4082 22.1877 38.4082 21.7853 38.3809 21.3843C38.3668 21.2276 38.3206 21.0755 38.2453 20.9374C38.17 20.7993 38.0672 20.6781 37.9431 20.5814C37.8178 20.4842 37.6735 20.4145 37.5195 20.3768C37.3655 20.3391 37.2053 20.3342 37.0493 20.3624C36.8954 20.3892 36.749 20.4487 36.62 20.5368C36.491 20.625 36.3823 20.7397 36.3014 20.8733C36.1363 21.1403 36.0838 21.4619 36.1554 21.7675C36.1735 22.0409 36.1735 22.3152 36.1554 22.5887C36.1482 25.2499 35.353 27.8493 33.8701 30.0587C32.3872 32.2682 30.2831 33.9886 27.8235 35.0029C25.364 36.0171 22.6592 36.2797 20.0505 35.7574C17.4419 35.2351 15.0465 33.9515 13.1666 32.0684C11.2867 30.1854 10.0067 27.7874 9.48808 25.1772C8.9695 22.5671 9.23565 19.8617 10.2529 17.4027C11.2701 14.9437 12.9928 12.8414 15.2036 11.361C17.4143 9.88062 20.014 9.08862 22.6744 9.08501H23.4952H23.7142C23.9953 9.09563 24.2696 8.99761 24.4803 8.81128C24.6838 8.61474 24.8018 8.34597 24.8087 8.06311" fill="white"/>
<path d="M29.4034 10.1979V14.2308L21.8876 21.749C21.7792 21.8491 21.6924 21.9704 21.6328 22.1053C21.5732 22.2403 21.5419 22.3861 21.541 22.5337C21.5414 22.834 21.6593 23.1221 21.8694 23.3366C21.975 23.4415 22.1002 23.5245 22.238 23.5809C22.3757 23.6372 22.5232 23.6658 22.672 23.6651C22.8211 23.6679 22.9692 23.6402 23.1073 23.5838C23.2453 23.5273 23.3703 23.4432 23.4747 23.3366L30.9905 15.8001H35.0038C35.1529 15.803 35.301 15.7753 35.4391 15.7188C35.5771 15.6623 35.7021 15.5782 35.8064 15.4717L42.5561 8.75632C42.682 8.5952 42.762 8.40293 42.7874 8.19998C42.8128 7.99704 42.7827 7.791 42.7003 7.60378C42.618 7.41657 42.4865 7.25519 42.3197 7.13681C42.153 7.01843 41.9573 6.94748 41.7534 6.93151H38.3969V3.46435C38.384 3.25895 38.3145 3.06114 38.1961 2.89287C38.0776 2.72461 37.9148 2.59248 37.7258 2.51118C37.5368 2.42989 37.329 2.4026 37.1254 2.43234C36.9218 2.46209 36.7305 2.54771 36.5726 2.67969L29.7865 9.41326C29.5792 9.62213 29.4614 9.9036 29.4582 10.1979M31.7019 10.6724L36.1896 6.18333V8.00815C36.1871 8.15586 36.2141 8.30257 36.269 8.43973C36.3238 8.5769 36.4054 8.70177 36.5089 8.80708C36.6125 8.91238 36.736 8.99601 36.8722 9.05309C37.0084 9.11017 37.1546 9.13955 37.3023 9.13953H39.1265L34.639 13.6103H31.6107L31.7019 10.6724Z" fill="white"/>
</svg>
