<svg width="47" height="45" viewBox="0 0 47 45" fill="none" xmlns="http://www.w3.org/2000/svg">
<path d="M46.8873 22.238C46.8832 22.2031 46.8734 22.1688 46.8653 22.1341C46.8575 22.1002 46.8523 22.0666 46.8404 22.0334C46.829 22.0011 46.8118 21.97 46.7976 21.9388C46.7817 21.9045 46.767 21.8699 46.7467 21.8366C46.7291 21.8085 46.7063 21.7826 46.6863 21.7555C46.6607 21.7216 46.6358 21.6877 46.6056 21.6558C46.6003 21.6506 46.5974 21.6444 46.5922 21.6389C43.2512 18.2797 31.7847 12.9834 24.0438 12.7168C23.8456 12.7084 23.6459 12.7036 23.445 12.7036C23.244 12.7036 23.0446 12.7081 22.8461 12.7168C15.1055 12.9838 3.63935 18.2795 0.297906 21.6389C0.292631 21.644 0.289382 21.6503 0.284103 21.6558C0.254062 21.6873 0.229701 21.7213 0.203718 21.7552C0.183419 21.7822 0.160279 21.8082 0.143227 21.8366C0.122928 21.8695 0.108719 21.9038 0.0924785 21.9381C0.0774572 21.9696 0.0604061 22.0011 0.0490378 22.0337C0.0376697 22.0666 0.0319868 22.1005 0.0242726 22.1341C0.0161529 22.1688 0.00640831 22.2035 0.00234864 22.2385C-0.00171103 22.273 0.000724608 22.308 0.000724608 22.3427C0.000724608 22.377 -0.00130502 22.4113 0.00234864 22.4455C0.00640872 22.4812 0.0165589 22.5162 0.0246778 22.5515C0.0323916 22.5845 0.0376692 22.6177 0.0486311 22.6499C0.0604049 22.6831 0.0778624 22.715 0.0928835 22.7475C0.108717 22.7811 0.122522 22.8148 0.142414 22.8466C0.160279 22.8754 0.183419 22.902 0.20453 22.9298C0.229702 22.963 0.253655 22.9963 0.283291 23.0271C0.288571 23.0326 0.29182 23.0389 0.297094 23.0445C3.63802 26.4032 15.1044 31.6996 22.8453 31.9666C23.0435 31.9748 23.2431 31.9796 23.4441 31.9796C23.6451 31.9796 23.8445 31.9752 24.043 31.9666C31.7831 31.6995 43.2499 26.4038 46.5913 23.0445C46.5967 23.0392 46.5999 23.033 46.6048 23.0275C46.6353 22.996 46.6598 22.9616 46.6855 22.9277C46.7055 22.9007 46.7283 22.8751 46.7458 22.8466C46.7663 22.8134 46.7809 22.7791 46.7968 22.7445C46.8115 22.713 46.8286 22.6821 46.8396 22.6499C46.8514 22.6166 46.8567 22.5827 46.8644 22.5491C46.8726 22.5145 46.8824 22.4802 46.8865 22.4452C46.8905 22.411 46.8881 22.3763 46.8881 22.3416C46.8898 22.307 46.8918 22.2727 46.8877 22.238H46.8873ZM5.45123 23.9541C4.50526 23.3981 3.68802 22.8529 3.0429 22.342C3.68802 21.8311 4.50522 21.2855 5.45164 20.7292C7.75438 19.3766 10.807 17.968 13.9388 16.871C13.7191 17.1356 13.5141 17.4096 13.3265 17.6925C12.4119 19.0722 11.8889 20.6569 11.8889 22.342C11.8889 24.0267 12.4119 25.6113 13.3265 26.991C13.5141 27.274 13.7191 27.5476 13.9388 27.8126C10.807 26.7153 7.75356 25.3066 5.45123 23.954V23.9541ZM23.4461 29.8071C18.4776 29.8071 14.4353 26.4583 14.4353 22.342C14.4353 18.2254 18.4778 14.8764 23.4461 14.8764C28.4146 14.8764 32.457 18.2255 32.457 22.3416C32.457 26.4583 28.4146 29.807 23.4461 29.807V29.8071ZM41.4412 23.9541C39.1383 25.307 36.0853 26.7157 32.9531 27.8126C33.1727 27.5481 33.3777 27.2741 33.5653 26.9911C34.4804 25.6114 35.0029 24.0268 35.0029 22.342C35.0029 20.657 34.48 19.0723 33.5653 17.6926C33.3777 17.4097 33.1727 17.136 32.9531 16.871C36.0853 17.968 39.1379 19.3767 41.4404 20.7296C42.3866 21.2855 43.2038 21.8311 43.8492 22.342C43.2042 22.853 42.3873 23.3981 41.4412 23.9541V23.9541Z" fill="white"/>
<path d="M23.4462 18.5576C20.9546 18.5576 18.928 20.2555 18.928 22.3425C18.928 24.4293 20.9551 26.127 23.4462 26.127C25.9378 26.127 27.9645 24.4291 27.9645 22.3425C27.9645 20.2556 25.9378 18.5576 23.4462 18.5576ZM23.4462 23.9545C22.359 23.9545 21.4743 23.2312 21.4743 22.3424C21.4743 21.4536 22.359 20.73 23.4462 20.73C24.5335 20.73 25.4182 21.4535 25.4182 22.3424C25.4182 23.2315 24.5335 23.9545 23.4462 23.9545Z" fill="white"/>
<path d="M37.2006 10.1985C37.5205 10.1985 37.8408 10.0963 38.0881 9.89096L42.5679 6.17294C43.0722 5.7545 43.0832 5.06728 42.5928 4.63714C42.1016 4.20694 41.2969 4.19724 40.7927 4.616L36.3127 8.33396C35.8085 8.75246 35.7976 9.43963 36.288 9.8698C36.5377 10.0887 36.869 10.1985 37.2007 10.1985H37.2006Z" fill="white"/>
<path d="M8.80434 9.89103C9.0515 10.0964 9.37225 10.1986 9.69184 10.1986C10.0235 10.1986 10.3548 10.0888 10.6044 9.86953C11.0949 9.43936 11.0835 8.75186 10.5797 8.33377L6.09967 4.61577C5.59542 4.19698 4.7896 4.20737 4.29954 4.63688C3.80912 5.06709 3.82049 5.75458 4.32433 6.17269L8.80434 9.89103Z" fill="white"/>
<path d="M23.26 7.43038C23.9632 7.43038 24.5332 6.94408 24.5332 6.34415V1.08622C24.5332 0.486308 23.9632 0 23.26 0C22.5568 0 21.9868 0.486308 21.9868 1.08622V6.34415C21.9868 6.94408 22.5572 7.43038 23.26 7.43038Z" fill="white"/>
<path d="M8.80397 35.1096L4.324 38.8274C3.81974 39.2458 3.80879 39.933 4.29921 40.3632C4.54889 40.5823 4.88018 40.6922 5.21187 40.6922C5.53179 40.6922 5.85211 40.5903 6.09934 40.3847L10.5794 36.6666C11.0836 36.2482 11.0946 35.561 10.6041 35.1308C10.1146 34.7006 9.30822 34.6909 8.80405 35.1096H8.80397Z" fill="white"/>
<path d="M38.0882 35.1095C37.584 34.6908 36.7781 34.7009 36.288 35.1304C35.7976 35.5606 35.809 36.2482 36.3129 36.6662L40.7927 40.3843C41.0406 40.5899 41.361 40.6918 41.6801 40.6918C42.012 40.6918 42.3434 40.5822 42.5929 40.3628C43.0836 39.9325 43.0722 39.245 42.5684 38.827L38.0882 35.1095Z" fill="white"/>
<path d="M23.6323 37.5698C22.9291 37.5698 22.3591 38.0561 22.3591 38.656V43.9141C22.3591 44.514 22.9291 45.0002 23.6323 45.0002C24.3355 45.0002 24.9055 44.514 24.9055 43.9141V38.656C24.9055 38.0561 24.3351 37.5698 23.6323 37.5698Z" fill="white"/>
</svg>
